<svg xmlns="http://www.w3.org/2000/svg" width="135" height="80" fill="none" viewBox="0 0 135 80"><rect width="135" height="80" fill="#fff"/><line x1="27" x2="37" y1="45.891" y2="45.891" stroke="#000" stroke-opacity=".6" stroke-width=".219"/><line x1="27" x2="37" y1="45.891" y2="45.891" stroke="#000" stroke-opacity=".6" stroke-width=".219"/><path stroke="#000" stroke-opacity=".6" stroke-width=".219" d="M53 46H57.2695V32.4864V26.0002L63 26"/><path stroke="#000" stroke-opacity=".6" stroke-width=".219" d="M81 26H99.2825V16V11L105 11.0002"/><path stroke="#000" stroke-opacity=".6" stroke-width=".219" d="M48 46H57.2841L57.2848 55.8122V60.9998L63 61"/><path stroke="#000" stroke-opacity=".6" stroke-width=".219" d="M96 26H100.475V35.3332V39.9998L106 40"/><rect width="18" height="11" x="63" y="55" fill="#9DD194" rx=".729"/><rect width="17.927" height="10.927" x="63.036" y="55.036" stroke="#000" stroke-opacity=".1" stroke-width=".073" rx=".692"/><rect width="19" height="10" x="8" y="41" fill="#FFDE6B" rx=".729"/><rect width="18.927" height="9.927" x="8.036" y="41.036" stroke="#000" stroke-opacity=".1" stroke-width=".073" rx=".692"/><rect width="9.736" height="9.736" fill="#937EE7" transform="matrix(0.676371 -0.736561 0.676371 0.736561 85.4199 26.1201)"/><rect width="9.663" height="9.663" x=".049" stroke="#000" stroke-opacity=".1" stroke-width=".073" transform="matrix(0.676371 -0.736561 0.676371 0.736561 85.4359 26.1564)"/><rect width="9.736" height="9.736" fill="#937EE7" transform="matrix(0.676371 -0.736561 0.676371 0.736561 35.5234 46.1709)"/><rect width="9.663" height="9.663" x=".049" stroke="#000" stroke-opacity=".1" stroke-width=".073" transform="matrix(0.676371 -0.736561 0.676371 0.736561 35.5394 46.2072)"/><rect width="18" height="12" x="63" y="20" fill="#FFDE6B" rx=".729"/><rect width="17.927" height="11.927" x="63.036" y="20.036" stroke="#000" stroke-opacity=".1" stroke-width=".073" rx=".692"/><rect width="20" height="10" x="105" y="8" fill="#937EE7" rx=".729"/><rect width="19.927" height="9.927" x="105.036" y="8.036" stroke="#000" stroke-opacity=".1" stroke-width=".073" rx=".692"/><rect width="20" height="12" x="105" y="34" fill="#937EE7" rx=".729"/><rect width="19.927" height="11.927" x="105.036" y="34.036" stroke="#000" stroke-opacity=".1" stroke-width=".073" rx=".692"/></svg>