<svg xmlns="http://www.w3.org/2000/svg" width="135" height="80" fill="none" viewBox="0 0 135 80"><rect width="135" height="80" fill="#fff"/><rect width="47" height="24" x="20" y="18" stroke="#6E52DF" stroke-width="2" rx="2"/><rect width="47" height="24" x="20" y="49" stroke="#84CFFF" stroke-width="2" rx="2"/><rect width="46" height="24" x="75" y="18" stroke="#FF8C38" stroke-width="2" rx="2"/><rect width="46" height="24" x="75" y="49" stroke="#7CC270" stroke-width="2" rx="2"/><rect width="49" height="5" x="19" y="8" fill="#937EE7" rx="2"/><rect width="48" height="5" x="74" y="8" fill="#FFC46B" rx="2"/><rect width="26" height="5" x="8" y="74" fill="#9DD194" rx="2" transform="rotate(-90 8 74)"/><rect width="26" height="5" x="13" y="17" fill="#B8E3FF" rx="2" transform="rotate(90 13 17)"/><rect width="30" height="3" x="24" y="22" fill="#D8D9D8" rx="1"/><rect width="20" height="3" x="79" y="22" fill="#D8D9D8" rx="1"/><rect width="16" height="3" x="79" y="57" fill="#D8D9D8" rx="1"/><rect width="20" height="3" x="79" y="63" fill="#D8D9D8" rx="1"/><rect width="13" height="3" x="24" y="27" fill="#D8D9D8" rx="1"/></svg>